HIERARCHY
ROOT Hips
{
	OFFSET 0.00000 0.00000 0.00000
	CHANNELS 6 Xposition Yposition Zposition Zrotation Yrotation Xrotation 
	JOINT LHipJoint
	{
		OFFSET 0 0 0
		CHANNELS 3 Zrotation Yrotation Xrotation
		JOINT LeftUpLeg
		{
			OFFSET 1.57338 -1.94743 0.52196
			CHANNELS 3 Zrotation Yrotation Xrotation
			JOINT LeftLeg
			{
				OFFSET 2.60333 -7.15259 0.00000
				CHANNELS 3 Zrotation Yrotation Xrotation
				JOINT LeftFoot
				{
					OFFSET 2.77855 -7.63400 0.00000
					CHANNELS 3 Zrotation Yrotation Xrotation
					JOINT LeftToeBase
					{
						OFFSET 0.19847 -0.54529 2.28466
						CHANNELS 3 Zrotation Yrotation Xrotation
						End Site
						{
							OFFSET 0.00000 -0.00000 1.17993
						}
					}
				}
			}
		}
	}
	JOINT RHipJoint
	{
		OFFSET 0 0 0
		CHANNELS 3 Zrotation Yrotation Xrotation
		JOINT RightUpLeg
		{
			OFFSET -1.61527 -1.94743 0.52196
			CHANNELS 3 Zrotation Yrotation Xrotation
			JOINT RightLeg
			{
				OFFSET -2.53829 -6.97390 0.00000
				CHANNELS 3 Zrotation Yrotation Xrotation
				JOINT RightFoot
				{
					OFFSET -2.80762 -7.71387 0.00000
					CHANNELS 3 Zrotation Yrotation Xrotation
					JOINT RightToeBase
					{
						OFFSET -0.30536 -0.83898 2.28801
						CHANNELS 3 Zrotation Yrotation Xrotation
						End Site
						{
							OFFSET -0.00000 -0.00000 1.21323
						}
					}
				}
			}
		}
	}
	JOINT LowerBack
	{
		OFFSET 0 0 0
		CHANNELS 3 Zrotation Yrotation Xrotation
		JOINT Spine
		{
			OFFSET -0.04381 1.99497 -0.19778
			CHANNELS 3 Zrotation Yrotation Xrotation
			JOINT Spine1
			{
				OFFSET -0.01959 2.01295 -0.04372
				CHANNELS 3 Zrotation Yrotation Xrotation
				JOINT Neck
				{
					OFFSET 0 0 0
					CHANNELS 3 Zrotation Yrotation Xrotation
					JOINT Neck1
					{
						OFFSET -0.05459 1.76913 0.09708
						CHANNELS 3 Zrotation Yrotation Xrotation
						JOINT Head
						{
							OFFSET 0.09461 1.77368 -0.11172
							CHANNELS 3 Zrotation Yrotation Xrotation
							End Site
							{
								OFFSET 0.03812 1.78157 -0.04834
							}
						}
					}
				}
				JOINT LeftShoulder
				{
					OFFSET 0 0 0
					CHANNELS 3 Zrotation Yrotation Xrotation
					JOINT LeftArm
					{
						OFFSET 3.50922 1.24034 -0.28866
						CHANNELS 3 Zrotation Yrotation Xrotation
						JOINT LeftForeArm
						{
							OFFSET 5.40188 -0.00000 0.00000
							CHANNELS 3 Zrotation Yrotation Xrotation
							JOINT LeftHand
							{
								OFFSET 3.68559 -0.00000 0.00000
								CHANNELS 3 Zrotation Yrotation Xrotation
								JOINT LeftFingerBase
								{
									OFFSET 0 0 0
									CHANNELS 3 Zrotation Yrotation Xrotation
									JOINT LeftHandIndex1
									{
										OFFSET 0.61753 -0.00000 0.00000
										CHANNELS 3 Zrotation Yrotation Xrotation
										End Site
										{
											OFFSET 0.49787 -0.00000 0.00000
										}
									}
								}
								JOINT LThumb
								{
									OFFSET 0 0 0
									CHANNELS 3 Zrotation Yrotation Xrotation
									End Site
									{
										OFFSET 0.50547 -0.00000 0.50547
									}
								}
							}
						}
					}
				}
				JOINT RightShoulder
				{
					OFFSET 0 0 0
					CHANNELS 3 Zrotation Yrotation Xrotation
					JOINT RightArm
					{
						OFFSET -2.95373 1.39649 -0.27346
						CHANNELS 3 Zrotation Yrotation Xrotation
						JOINT RightForeArm
						{
							OFFSET -6.10670 -0.00000 -0.00000
							CHANNELS 3 Zrotation Yrotation Xrotation
							JOINT RightHand
							{
								OFFSET -3.63052 -0.00000 0.00000
								CHANNELS 3 Zrotation Yrotation Xrotation
								JOINT RightFingerBase
								{
									OFFSET 0 0 0
									CHANNELS 3 Zrotation Yrotation Xrotation
									JOINT RightHandIndex1
									{
										OFFSET -0.58385 -0.00000 0.00000
										CHANNELS 3 Zrotation Yrotation Xrotation
										End Site
										{
											OFFSET -0.47071 -0.00000 0.00000
										}
									}
								}
								JOINT RThumb
								{
									OFFSET 0 0 0
									CHANNELS 3 Zrotation Yrotation Xrotation
									End Site
									{
										OFFSET -0.47790 -0.00000 0.47790
									}
								}
							}
						}
					}
				}
			}
		}
	}
}
MOTION
Frames: 11
Frame Time: .0083333
-3.3019 16.5382 4.1114 703.0110 -54.4633 -692.7340 0.0000 0.0000 0.0000 23.6936 -28.8047 -62.5569 11.2418 18.0514 63.5643 -0.2123 -8.3258 4.9292 1.1324 -6.7585 -19.0020 0.0000 0.0000 0.0000 25.4828 0.6568 7.6161 -4.5091 -12.8087 38.6567 0.4216 -12.2556 -9.2882 -0.8189 5.7743 -16.1310 -8.8171 11.1725 8.6884 -7.7256 13.6411 4.7887 -4.5067 6.5896 0.1978 -11.5116 0.0689 -2.4808 0.6457 0.9319 20.3118 2.1793 -0.3902 6.5889 -0.0000 0.0000 0.0000 -95.1912 31.7524 15.4780 149.6375 -41.2021 -108.3523 -0.0000 0.0000 -44.0753 -8.9571 16.7557 -2.6017 -7.1250 0.0000 -0.0000 -33.1145 43.9860 0.9388 -0.0000 0.0000 0.0000 88.3978 33.2790 33.6994 -81.9633 59.7545 -53.0458 0.0000 -0.0000 -83.3609 1.5842 4.2381 0.1171 7.1250 -0.0000 -0.0000 20.9299 -25.6032 10.5098
-3.3123 16.5683 4.1024 700.4270 -55.6913 -690.4340 0.0000 0.0000 0.0000 24.8800 -27.5110 -62.8304 11.5771 18.2061 64.6418 -0.1617 -7.9073 6.5819 1.0052 -6.3798 -17.8906 0.0000 0.0000 0.0000 25.2947 0.8543 6.3300 -4.6269 -12.9509 39.1851 0.4367 -13.4030 -12.0956 -0.7035 5.3612 -14.9416 -8.7961 11.1814 8.4195 -8.0612 13.6614 4.6891 -4.8178 6.5969 0.3272 -11.1326 0.5445 -2.2338 0.1918 1.5668 20.0598 2.0035 -0.0881 6.4315 -0.0000 -0.0000 0.0000 -95.2163 32.6566 14.5761 149.5411 -41.2835 -108.2888 -0.0000 0.0000 -45.4640 -9.1940 17.9548 -2.8564 -7.1250 0.0000 -0.0000 -33.9171 44.9766 0.0223 -0.0000 -0.0000 0.0000 88.6534 35.9138 34.8442 -84.0769 59.8670 -54.8727 0.0000 -0.0000 -82.2680 -0.5892 4.4234 -0.0454 7.1250 -0.0000 -0.0000 19.3490 -25.4604 9.6859
-3.3219 16.5840 4.0949 697.3470 -57.0249 -687.8440 0.0000 0.0000 0.0000 25.9301 -25.9896 -62.7322 11.9083 18.3516 65.6979 -0.1200 -7.7365 7.8514 0.8720 -5.9539 -16.6506 0.0000 0.0000 0.0000 25.1625 1.1681 5.2274 -4.7109 -13.0507 39.5584 0.3952 -14.2396 -14.8191 -0.4878 4.4782 -12.4260 -8.6986 11.2509 8.2848 -8.3602 13.7416 4.5579 -5.1670 6.6367 0.3607 -10.7050 0.9832 -2.0660 -0.2778 2.1606 19.8488 1.8119 0.1951 6.3095 0.0000 0.0000 0.0000 -95.2285 33.5782 13.5856 149.2843 -41.4990 -108.1190 -0.0000 0.0000 -47.0748 -9.7631 20.0226 -3.3716 -7.1250 0.0000 -0.0000 -35.5159 46.6411 -1.6442 0.0000 0.0000 0.0000 88.8395 38.6320 36.0029 -86.1189 59.9430 -56.6395 0.0000 -0.0000 -81.1505 0.5851 5.8197 0.0593 7.1250 -0.0000 -0.0000 19.9659 -24.1340 10.6949
-3.3340 16.5872 4.0827 694.4290 -58.6274 -685.1950 0.0000 0.0000 0.0000 26.5724 -24.2081 -62.5373 12.2040 18.4755 66.6338 -0.0989 -7.8546 8.7654 0.7838 -5.6519 -15.7778 0.0000 0.0000 0.0000 24.6682 1.7204 3.9869 -4.7557 -13.1033 39.7562 0.3172 -14.9284 -17.3551 -0.3613 3.8616 -10.6877 -8.9665 11.4120 7.9573 -8.7661 13.9284 4.3663 -5.4294 6.7200 0.3853 -10.1641 1.3874 -1.9148 -0.8096 2.7090 19.5719 1.5783 0.4639 6.1790 -0.0000 -0.0000 0.0000 -95.0982 34.4401 12.6721 148.7919 -41.9067 -107.7914 -0.0000 0.0000 -48.9251 -10.6295 21.0004 -3.8479 -7.1250 0.0000 -0.0000 -36.8069 47.3321 -2.4394 -0.0000 -0.0000 0.0000 88.9171 41.4485 36.8753 -87.8172 59.9820 -58.1097 0.0000 -0.0000 -80.5539 0.9049 6.0959 0.0961 7.1250 -0.0000 -0.0000 20.1479 -23.8718 10.9368
-3.3410 16.5875 4.0835 692.1200 -60.5484 -683.7370 0.0000 0.0000 0.0000 26.1076 -22.8291 -61.3405 12.4485 18.5739 67.4034 -0.1015 -8.0498 9.0513 0.7639 -5.5816 -15.5751 0.0000 0.0000 0.0000 23.5786 2.1538 3.4954 -4.7467 -13.0927 39.7166 0.1814 -15.2518 -19.6467 -0.3947 4.0339 -11.1721 -9.7350 11.6886 8.4183 -9.1105 14.0817 4.3190 -5.5447 6.7667 0.0101 -9.8352 1.8200 -1.8412 -1.2241 3.3023 19.3603 1.4200 0.7446 6.0831 0.0000 0.0000 0.0000 -95.1256 35.3067 11.6767 148.1300 -42.4433 -107.3470 -0.0000 0.0000 -51.0238 -10.9592 20.7309 -3.9212 -7.1250 0.0000 -0.0000 -36.9177 47.0635 -2.1699 0.0000 0.0000 0.0000 88.7862 44.0794 37.5847 -89.0837 59.9968 -59.2064 0.0000 -0.0000 -80.6336 0.9289 6.5019 0.1052 7.1250 -0.0000 -0.0000 20.1028 -23.4904 11.0995
-3.3455 16.5672 4.0829 689.7290 -62.1341 -682.4460 0.0000 0.0000 0.0000 25.6183 -21.6346 -59.8567 12.6111 18.6372 67.9131 -0.1086 -8.0931 8.9283 0.7146 -5.4022 -15.0594 0.0000 0.0000 0.0000 22.6238 2.2318 3.0976 -4.7836 -13.1359 39.8794 -0.1672 -14.1426 -21.8628 -0.4313 4.2147 -11.6816 -10.3900 11.8790 9.0620 -9.2461 14.1043 4.3536 -5.5198 6.7482 -0.4100 -9.6930 2.2683 -1.7356 -1.5689 3.9106 19.1028 1.3131 1.0272 5.9677 -0.0000 0.0000 0.0000 -95.3116 36.1199 10.6293 147.1689 -43.1998 -106.6937 -0.0000 0.0000 -53.2380 -10.9168 20.0741 -3.7875 -7.1250 0.0000 -0.0000 -36.4959 46.5266 -1.5855 -0.0000 0.0000 0.0000 88.4344 46.2102 38.2208 -90.3034 59.9997 -60.2627 0.0000 -0.0000 -80.8216 1.5316 6.7586 0.1803 7.1250 -0.0000 -0.0000 20.4833 -23.2452 11.4634
-3.3540 16.5187 4.0866 686.3820 -63.2190 -680.0550 0.0000 0.0000 0.0000 25.8415 -20.3458 -58.5397 12.6961 18.6697 68.1789 -0.1325 -8.2058 8.4174 0.7004 -5.3493 -14.9075 0.0000 0.0000 0.0000 22.2004 2.0834 2.4770 -4.8557 -13.2195 40.1957 -0.6966 -11.3688 -23.6933 -0.3670 3.8916 -10.7718 -10.3990 11.8422 9.0874 -9.2770 14.0324 4.4285 -5.5355 6.6980 -0.3401 -9.4005 2.7745 -1.5181 -2.0983 4.5809 18.4831 1.1194 1.3567 5.7269 0.0000 -0.0000 0.0000 -95.5395 36.7104 9.2782 145.9294 -44.1370 -105.8378 -0.0000 0.0000 -55.5681 -11.0170 18.6201 -3.5571 -7.1250 0.0000 -0.0000 -35.7566 45.3038 -0.3089 0.0000 -0.0000 0.0000 88.2155 47.9447 39.1732 -91.6467 59.9898 -61.4260 0.0000 -0.0000 -80.6899 1.7616 6.4806 0.1989 7.1250 -0.0000 -0.0000 20.6860 -23.5036 11.4597
-3.3605 16.5141 4.1122 683.6840 -64.8965 -677.8690 0.0000 0.0000 0.0000 25.1499 -19.1357 -56.8474 12.6132 18.6380 67.9198 -0.1738 -8.2248 6.9051 0.8228 -5.7876 -16.1694 0.0000 0.0000 0.0000 20.9739 1.7974 1.1842 -5.0203 -13.4067 40.9105 -0.5676 -13.0607 -24.2997 -0.1933 2.8315 -7.8101 -11.2433 11.8594 8.8767 -9.4735 13.9570 4.3284 -5.3032 6.6289 -0.4751 -9.0810 3.3021 -1.4210 -2.6760 5.3020 18.0137 0.9114 1.7017 5.5615 0.0000 -0.0000 0.0000 -95.8420 37.3018 7.7150 144.4301 -45.2148 -104.7836 -0.0000 0.0000 -57.9724 -11.2014 17.5280 -3.4132 -7.1250 0.0000 -0.0000 -35.3183 44.3658 0.6372 0.0000 -0.0000 0.0000 87.9575 48.9979 40.2482 -92.8868 59.9685 -62.4997 0.0000 -0.0000 -80.1766 1.6086 5.7876 0.1622 7.1250 -0.0000 -0.0000 20.6890 -24.1538 11.1256
-3.3712 16.4963 4.1276 680.1510 -66.1217 -674.9550 0.0000 0.0000 0.0000 24.8786 -17.9309 -54.9164 12.4306 18.5668 67.3473 -0.2288 -8.5815 4.7681 1.0397 -6.4850 -18.1984 0.0000 0.0000 0.0000 20.4206 2.1650 -0.0580 -5.1998 -13.6053 41.6788 -0.5586 -13.5232 -24.7190 -0.0206 0.9272 -2.5486 -11.8792 11.8280 8.6549 -9.4143 13.8683 4.2844 -4.8930 6.5578 -0.5633 -8.8808 3.7536 -1.8697 -3.2489 6.0175 17.9653 0.7415 2.0086 5.6270 -0.0000 0.0000 0.0000 -96.2385 37.5619 6.1912 142.5277 -46.4990 -103.4182 -0.0000 0.0000 -60.3027 -11.7744 18.8323 -3.8494 -7.1250 0.0000 -0.0000 -36.4857 45.3820 -0.3988 -0.0000 0.0000 0.0000 87.3887 49.4057 41.2642 -93.8379 59.9443 -63.3231 0.0000 -0.0000 -79.4422 1.2632 4.8776 0.1074 7.1250 -0.0000 -0.0000 20.5943 -25.0100 10.6255
-3.3970 16.4590 4.1556 676.8440 -67.5109 -672.3560 0.0000 0.0000 0.0000 24.0845 -16.7828 -52.4782 12.1990 18.4735 66.6181 -0.2552 -9.0298 1.7796 1.2609 -7.1180 -20.0654 0.0000 0.0000 0.0000 19.4802 2.5719 -0.8839 -5.3875 -13.8073 42.4710 -0.6229 -13.5084 -25.2379 -0.2184 3.0082 -8.3017 -12.5786 11.7727 8.3274 -9.5439 13.7579 4.2724 -4.6203 6.4703 -0.5215 -8.5755 4.2345 -2.5997 -3.6326 6.7818 18.0908 0.6288 2.3436 5.7947 -0.0000 0.0000 0.0000 -96.4320 37.6466 4.5263 140.2426 -47.9255 -101.7411 -0.0000 0.0000 -62.4250 -14.7097 21.9403 -5.6022 -7.1250 0.0000 -0.0000 -40.7249 47.5084 -3.0044 -0.0000 0.0000 0.0000 87.0205 49.0048 42.4398 -94.7550 59.9144 -64.1168 0.0000 -0.0000 -78.4149 1.7057 5.0427 0.1500 7.1250 -0.0000 -0.0000 20.8791 -24.8492 10.8778
-3.4397 16.4130 4.1886 672.2510 -68.5278 -668.7370 0.0000 0.0000 0.0000 23.5964 -15.3484 -49.4716 11.9371 18.3639 65.7893 -0.2199 -9.6813 -1.8090 1.5317 -7.8137 -22.1497 0.0000 0.0000 0.0000 19.0820 3.0015 -1.1687 -5.5095 -13.9356 42.9800 -0.6446 -13.4353 -25.3385 -0.4876 4.4773 -12.4235 -12.8283 11.6399 7.8435 -9.5382 13.6477 4.3008 -4.3775 6.3908 -0.2872 -8.2714 4.7855 -3.5443 -3.8155 7.6410 18.3375 0.5972 2.7255 6.0328 -0.0000 0.0000 0.0000 -96.6996 37.5620 2.4932 137.6605 -49.3965 -99.8021 -0.0000 0.0000 -64.5162 -15.1385 25.0845 -6.5431 -7.1250 0.0000 -0.0000 -43.2569 49.9178 -6.2996 -0.0000 0.0000 0.0000 86.8380 47.9683 43.9654 -95.6137 59.8806 -64.8597 0.0000 -0.0000 -76.9907 1.5979 5.1660 0.1439 7.1250 -0.0000 -0.0000 20.7828 -24.7356 10.8799
